<svg xmlns="http://www.w3.org/2000/svg" width="55" height="55" viewBox="0 0 55 55"><g transform="translate(2684.775 2858.253)"><g transform="translate(-2024.965 -2790.253) rotate(180)"><g transform="translate(604.811 13)"><g transform="translate(0 0)"><path d="M1213.094,59.355c0,15.188-6.2,28.111-21.389,28.111s-33.61-12.924-33.61-28.112,6.2-26.888,21.388-26.888S1213.094,44.168,1213.094,59.355Z" transform="translate(-1158.095 -32.466)" fill="#fefdff" opacity="0.15"/><path d="M1209.634,63.937c0,10.842-4.427,20.068-15.269,20.068s-23.994-9.226-23.994-20.068,4.427-19.194,15.269-19.194S1209.634,53.1,1209.634,63.937Z" transform="translate(-1162.503 -36.874)"/></g></g></g><g transform="translate(-4460.656 -6078.253) rotate(180)"><path d="M622.665,1079.652q0-3.8,0-7.592a1.988,1.988,0,0,1,.807-1.788.86.86,0,0,1,1.047.182q2.843,2.524,5.683,5.054c.9.8,1.79,1.6,2.689,2.387a2.372,2.372,0,0,1,.722,1.668,2.606,2.606,0,0,1-.205,1.123,1.772,1.772,0,0,1-.494.721l-6.968,6.2c-.483.43-.961.872-1.45,1.284a.861.861,0,0,1-1.356-.116,2.266,2.266,0,0,1-.477-1.528Q622.666,1083.447,622.665,1079.652Z" transform="translate(-1173.097 -2167.834) rotate(180)" fill="#fff"/><rect width="5" height="19" rx="2.5" transform="translate(-1811 -3257)" fill="#fff"/></g></g></svg>