<svg xmlns="http://www.w3.org/2000/svg" width="54.999" height="55" viewBox="0 0 54.999 55"><g transform="translate(-498.811 -13)"><g transform="translate(498.811 13)"><g transform="translate(0 0)"><path d="M1213.094,59.355c0,15.188-6.2,28.111-21.389,28.111s-33.61-12.924-33.61-28.112,6.2-26.888,21.388-26.888S1213.094,44.168,1213.094,59.355Z" transform="translate(-1158.095 -32.466)" fill="#fefdff"/><path d="M1209.634,63.937c0,10.842-4.427,20.068-15.269,20.068s-23.994-9.226-23.994-20.068,4.427-19.194,15.269-19.194S1209.634,53.1,1209.634,63.937Z" transform="translate(-1162.503 -36.874)" fill="#563faf"/></g></g><g transform="matrix(0.848, 0.53, -0.53, 0.848, 527.607, 5.19)"><path d="M24.408,23.166a.271.271,0,0,1,.282.292v5.628a.289.289,0,0,0,.2.292h.056a.5.5,0,0,0,.254-.117,3.277,3.277,0,0,1,2.458-1.312c1.243,0,1.695,1.225,1.695,2.275S28.9,32.5,27.657,32.5A3.277,3.277,0,0,1,25.2,31.186a.251.251,0,0,0-.226-.146.1.1,0,0,0-.085.029.351.351,0,0,0-.2.292v5.686a.271.271,0,0,1-.282.292H19.634a4,4,0,0,0,.96-2.479c0-1.4-1.1-2.333-2.768-2.333s-2.768.933-2.768,2.333a4.172,4.172,0,0,0,.96,2.479H11.273a.271.271,0,0,1-.282-.292V31.39a.289.289,0,0,0-.2-.292h-.085c-.085,0-.2.029-.226.117a3.277,3.277,0,0,1-2.458,1.312c-1.243,0-1.695-1.225-1.695-2.275s.452-2.275,1.695-2.275a3.277,3.277,0,0,1,2.458,1.312.254.254,0,0,0,.226.117h.085a.351.351,0,0,0,.2-.292V23.458a.271.271,0,0,1,.282-.292h4.689A4.172,4.172,0,0,0,15,25.645c0,1.4,1.1,2.333,2.768,2.333s2.768-.933,2.768-2.333a4.172,4.172,0,0,0-.96-2.479h4.83m-8.446,0h0M24.408,22h-4.83a1.09,1.09,0,0,0-1.017.671,1.25,1.25,0,0,0,.141,1.254,3,3,0,0,1,.706,1.72c0,1.079-1.243,1.166-1.638,1.166s-1.638-.087-1.638-1.166a2.955,2.955,0,0,1,.678-1.72,1.187,1.187,0,0,0,.282-.758A1.152,1.152,0,0,0,15.962,22H11.273a1.422,1.422,0,0,0-1.412,1.458v3.849a4.226,4.226,0,0,0-1.836-.5c-1.667,0-2.825,1.429-2.825,3.441s1.158,3.441,2.825,3.441a3.86,3.86,0,0,0,1.836-.5v3.849A1.422,1.422,0,0,0,11.273,38.5h4.746a1.09,1.09,0,0,0,1.017-.671,1.25,1.25,0,0,0-.141-1.254,3,3,0,0,1-.706-1.72c0-1.079,1.243-1.166,1.638-1.166s1.638.087,1.638,1.166a2.816,2.816,0,0,1-.678,1.72,1.194,1.194,0,0,0-.169,1.254,1.119,1.119,0,0,0,1.017.671h4.774a1.422,1.422,0,0,0,1.412-1.458V33.169a4.226,4.226,0,0,0,1.836.5c1.667,0,2.825-1.429,2.825-3.441s-1.158-3.441-2.825-3.441a3.86,3.86,0,0,0-1.836.5v-3.82A1.422,1.422,0,0,0,24.408,22Z" transform="translate(0 0)" fill="#fff" stroke="#fff" stroke-width="1"/></g></g></svg>