<svg xmlns="http://www.w3.org/2000/svg" width="112.653" height="74.913" viewBox="0 0 112.653 74.913"><g transform="translate(-47.902 -30.121)"><g transform="translate(47.902 30.121)"><path d="M157.177,52.7a13.692,13.692,0,0,0-8.717-4.6A11.229,11.229,0,0,0,139.727,37.3L110.043,30.48A14.035,14.035,0,0,0,93.114,46.874c-3.458-6.18-10.863-9.987-16.612-10.95a24.36,24.36,0,0,0-4.019-.336A24.753,24.753,0,0,0,52.969,75.338a9.9,9.9,0,0,0-1.461,10.735h0l0,.007a9.908,9.908,0,0,0,.954,1.6L59.8,99.969a9.5,9.5,0,0,0,2.775,3.261,9.2,9.2,0,0,0,5.481,1.8,5.634,5.634,0,0,0,1.353-.2c2.511-.633,17.41-8.517,37.23-8.517a90.275,90.275,0,0,1,32.915,6.573c3.128,1.235,5.378,2.142,6.827,2.142a9.2,9.2,0,0,0,5.48-1.8,9.575,9.575,0,0,0,3.814-6.59,9.461,9.461,0,0,0-2.168-7.205c-.17-.2-.348-.39-.536-.575,1.126-2.591,2.517-5.8,2.517-5.8a10.982,10.982,0,0,0,.477-8.7,8.925,8.925,0,0,0-.919-1.677A13.7,13.7,0,0,0,157.177,52.7Z" transform="translate(-47.902 -30.121)" fill="#390084"/><path d="M120.293,69.014h0v0Z" transform="translate(-66.868 -40.31)" fill="#c1ff00"/><path d="M116.6,84.845" transform="translate(-65.899 -44.458)" fill="#2d2d2d"/><path d="M144.206,54.593l11.465.5a4.081,4.081,0,0,0,4.285-4.1h0a4.347,4.347,0,0,0-3.367-4.489L126.9,39.682a7.13,7.13,0,0,0-8.663,6h0A7.13,7.13,0,0,0,125,53.753l8.088.355a.259.259,0,0,1,.089.5l-1.113.467a1.187,1.187,0,0,0-.853.979l.652,16.778A4.309,4.309,0,0,0,135.891,77a4.242,4.242,0,0,0,4.4-3.6l2.714-17.825A1.16,1.16,0,0,1,144.206,54.593Z" transform="translate(-66.314 -32.578)" fill="#c1ff00"/><path d="M179.976,66.045h0a6.782,6.782,0,0,0-10.936.981l-3.379,5.657-2.772,4.92a.349.349,0,0,1-.642-.086h0a2.7,2.7,0,0,1,.143-1.751l1.353-3.094c-.123-1.275-.42-3.972-.42-3.972a4.254,4.254,0,0,0-5.335-3.685h0a4.253,4.253,0,0,0-2.826,5.74L160.5,83.614a1.669,1.669,0,0,0,2.316.839l15.187-7.942A6.783,6.783,0,0,0,179.976,66.045Z" transform="translate(-75.918 -38.924)" fill="#c1ff00"/><path d="M168.058,105.085a2.886,2.886,0,0,0-2.454-.768,2.359,2.359,0,0,0-1.728,1.749s-1.224,4.683-1.4,5.39a2.025,2.025,0,0,0,2.064,2.848A2.15,2.15,0,0,0,166.3,113l2.168-5.45A2.439,2.439,0,0,0,168.058,105.085Z" transform="translate(-77.888 -49.549)" fill="#f95d58"/><path d="M74.115,115.346l-3.932-8.327a2.372,2.372,0,0,0-2.063-1.412,2.768,2.768,0,0,0-2.3,1.235,2.627,2.627,0,0,0,.114,2.464l4.5,7.881c.015.027.033.052.049.079l.089.142.007,0a2.186,2.186,0,0,0,3.258.109,2.048,2.048,0,0,0,.267-2.165Z" transform="translate(-52.531 -49.897)" fill="#f95d58"/><path d="M141.8,97.4a2.554,2.554,0,0,0-2.252-1.841,2.333,2.333,0,0,0-2.564,1.634c-.314,1.249.588,2.7,1.2,3.437a.255.255,0,0,1,.026.285h0a.353.353,0,0,1-.6.037c-1.088-1.523-2.925-4.091-3.08-4.282a6.526,6.526,0,0,0-.492-.548,3.285,3.285,0,0,0-1.264-.827,2.4,2.4,0,0,0-3.23,2.133c.036,1.418.161,5.4.266,7.292a4.073,4.073,0,0,0,.412,1.88,2.078,2.078,0,0,0,1.694.995,2.107,2.107,0,0,0,1.756-.887q.041-.059.078-.12a1.792,1.792,0,0,0-.123-2.1c-.165-.208-.326-.416-.45-.576a1.2,1.2,0,0,1-.247-.683h0a.2.2,0,0,1,.345-.141c.891.987,3.121,3.459,3.5,3.876a3.656,3.656,0,0,0,1.022.868,1.959,1.959,0,0,0,1.3.139,2.1,2.1,0,0,0,1.334-1,4.164,4.164,0,0,0,.405-1.4l.956-5.77a5.219,5.219,0,0,0,.027-2.354C141.808,97.438,141.8,97.418,141.8,97.4Z" transform="translate(-69.29 -47.165)" fill="#f95d58"/><path d="M106.318,99.881a2.532,2.532,0,0,0,.361-2.569,2.559,2.559,0,0,0-2.663-1.567s-3.77.635-5.7.993a2.354,2.354,0,0,0-2.029,3.185l2.153,8.052.044.148.034.1a1.985,1.985,0,0,0,2.6,1.232,1.832,1.832,0,0,0,1.358-2.218,1.522,1.522,0,0,0-1.092-1.206c-.211-.106-.153-.325.041-.308l3.146.041v0a1.979,1.979,0,0,0,1.457-.759,1.938,1.938,0,0,0,.24-2.046,1.977,1.977,0,0,0-2.09-1.131v-.009l-1.652.346a.705.705,0,0,1-.846-.54.685.685,0,0,1,.688-.807l1.995.043v-.005A2.56,2.56,0,0,0,106.318,99.881Z" transform="translate(-60.547 -47.31)" fill="#f95d58"/><path d="M72.435,82.433c13.046,2.038,18.57-7.04,18.626-11.09a4.162,4.162,0,0,0-4.429-4.061,4.336,4.336,0,0,0-3.579,2.279,4.921,4.921,0,0,1-3.579,2.382,4.411,4.411,0,0,1-.506.031,4.231,4.231,0,0,1-4.231-4.231,4.3,4.3,0,0,1,3.455-4.159,4.945,4.945,0,0,1,3.112.632,6.661,6.661,0,0,0,8.21-2.908c3.948-6.291-4.821-13.007-11.7-14.159a17.846,17.846,0,1,0-5.38,35.284Z" transform="translate(-50.358 -34.519)" fill="#c1ff00"/><path d="M175.531,97c-.486,1.655-3.746,11.942-4.074,13.034a2.366,2.366,0,0,0,.2,2.19,2.82,2.82,0,0,0,1.147.821c1.01.458,2.027.9,3.041,1.351,1.314.58,2.847,1.531,4.249.5a2.608,2.608,0,0,0,.474-3.735c-1.12-1.317-5.815-1.917-5.942-1.948-.068-.017-.135-.032-.2-.05-.171-.046-.224-.091-.2-.192s.195-.1.426-.1a13.789,13.789,0,0,0,1.449-.055c.554-.063.745-.638.9-.993.455-1.019,4.108-9.441,4.429-10.189s1.74-3.635-1-4.7C176.786,91.512,176.018,95.345,175.531,97Z" transform="translate(-80.23 -46.496)" fill="#f95d58"/><path d="M159.593,98.952a2.583,2.583,0,0,0-1.826-1.049c-.756-.12-5.594-.816-6.753-1a2.162,2.162,0,0,0-2.463,1.225,2.094,2.094,0,0,0,1.041,2.889l.053.013h0l2.131.386a.246.246,0,0,1,.03.477h0a1.832,1.832,0,0,0-1.244,1.4l-.635,4.763h.007a2.051,2.051,0,0,0,.775,1.976,1.874,1.874,0,0,0,1.333.345,2.177,2.177,0,0,0,1.985-1.839c.229-.878,1.395-5.86,1.395-5.86.134-.453.5-.522,1.01-.432l.376.066a2.663,2.663,0,0,0,2.548-.452A2.4,2.4,0,0,0,159.593,98.952Z" transform="translate(-74.22 -47.609)" fill="#f95d58"/><circle cx="2.432" cy="2.432" r="2.432" transform="translate(87.909 49.298)" fill="#f95d58"/><circle cx="3.02" cy="3.02" r="3.02" transform="translate(9.569 49.55)" fill="#f95d58"/><path d="M123.48,104.729l-3.408-8.365h0c-.012-.027-.02-.056-.032-.082h0a2.62,2.62,0,0,0-4.883.367l0,0-2.286,8.713.008,0a1.913,1.913,0,0,0,.395,1.817,2.027,2.027,0,0,0,.9.6,2.115,2.115,0,0,0,2.687-1.165l.007,0a1.552,1.552,0,0,1,1.461-.949l0,0H120.3l-.549.36a.308.308,0,0,0-.089.417v0l.011.018.007,0a2.116,2.116,0,0,0,2.832.816,2.011,2.011,0,0,0,.818-.72A1.933,1.933,0,0,0,123.48,104.729ZM119.14,102c0,.01,0,.019,0,.029a.977.977,0,0,1-1.52.625.931.931,0,0,1-.415-.943c.072-.321.361-1.4.361-1.4a.161.161,0,0,1,.311-.005l.1.273a.484.484,0,0,0,.379.308h0A.979.979,0,0,1,119.14,102Z" transform="translate(-64.904 -47.06)" fill="#f95d58"/><path d="M119.78,62.678a3.9,3.9,0,0,0-3.445,3.665,2.665,2.665,0,0,0,.612,2.089l.413.492a.391.391,0,0,1-.087.579.742.742,0,0,1-.963-.137L114.8,67.626l-2.23-2.556h0a4.224,4.224,0,0,0-4.437-1.328,4.292,4.292,0,0,0-2.83,5.339l3.225,11a2.626,2.626,0,0,0,2.79,1.9,2.58,2.58,0,0,0,2.281-2.569s-.005-.139-.012-.356a2.464,2.464,0,0,0-1.042-1.888l-.483-.339a.436.436,0,0,1-.072-.65.681.681,0,0,1,.887-.107l2.595,1.753-.009.006,4.02,2.706.023.016.038.027v0a2.551,2.551,0,0,0,1.808.42h0a2.156,2.156,0,0,0,2.145-1.943l1.178-11.876A4.206,4.206,0,0,0,119.78,62.678Z" transform="translate(-62.893 -38.636)" fill="#c1ff00"/><path d="M87.784,101.666a2.494,2.494,0,0,0-2.689-.911,2.277,2.277,0,0,0-1.785,2.372c.141,1.249,1.463,2.269,2.271,2.732a.248.248,0,0,1,.122.251h0a.344.344,0,0,1-.534.238c-1.515-1.019-5.469-4.064-5.837-4.334a3.063,3.063,0,0,0-2.238-.742,2.1,2.1,0,0,0-1.612,3.036c.519,1.285,3.1,6.463,3.846,8.155a3.975,3.975,0,0,0,1.021,1.579,2.028,2.028,0,0,0,1.889.329,2.056,2.056,0,0,0,1.3-1.412c.011-.045.021-.091.03-.136a1.75,1.75,0,0,0-.83-1.874c-.223-.134-.441-.268-.609-.372a1.17,1.17,0,0,1-.46-.54h0a.194.194,0,0,1,.267-.248c1.153.6,4.038,2.094,4.531,2.345a3.578,3.578,0,0,0,1.232.444,1.91,1.91,0,0,0,1.233-.317,2.054,2.054,0,0,0,.879-1.366,4.083,4.083,0,0,0-.108-1.418l-1.1-5.6a5.1,5.1,0,0,0-.781-2.161Z" transform="translate(-55.072 -48.601)" fill="#f95d58"/><path d="M120.292,69.01v0h0Z" transform="translate(-66.868 -40.31)" fill="#c1ff00"/></g></g></svg>