<svg xmlns="http://www.w3.org/2000/svg" width="54.999" height="55" viewBox="0 0 54.999 55"><g transform="translate(-394.811 -13)"><g transform="translate(394.811 13)"><g transform="translate(0 0)"><path d="M1213.094,59.355c0,15.188-6.2,28.111-21.389,28.111s-33.61-12.924-33.61-28.112,6.2-26.888,21.388-26.888S1213.094,44.168,1213.094,59.355Z" transform="translate(-1158.095 -32.466)" fill="#fefdff"/><path d="M1209.634,63.937c0,10.842-4.427,20.068-15.269,20.068s-23.994-9.226-23.994-20.068,4.427-19.194,15.269-19.194S1209.634,53.1,1209.634,63.937Z" transform="translate(-1162.503 -36.874)" fill="#563faf"/></g></g><g transform="translate(296 10.896)"><path d="M118.773,616.1h15.055" transform="translate(0 -593)" fill="none" stroke="#fff" stroke-linecap="round" stroke-width="2"/><path d="M118.773,616.1h15.055" transform="translate(0 -588.966)" fill="none" stroke="#fff" stroke-linecap="round" stroke-width="2"/><path d="M118.773,616.1h15.055" transform="translate(0 -584.931)" fill="none" stroke="#fff" stroke-linecap="round" stroke-width="2"/><path d="M118.773,616.1h15.055" transform="translate(0 -580.896)" fill="none" stroke="#fff" stroke-linecap="round" stroke-width="2"/></g></g></svg>