<svg xmlns="http://www.w3.org/2000/svg" width="54.999" height="55" viewBox="0 0 54.999 55"><g transform="translate(-191.811 -13)"><g transform="translate(191.811 13)"><g transform="translate(0 0)"><path d="M1213.094,59.355c0,15.188-6.2,28.111-21.389,28.111s-33.61-12.924-33.61-28.112,6.2-26.888,21.388-26.888S1213.094,44.168,1213.094,59.355Z" transform="translate(-1158.095 -32.466)" fill="#fefdff" opacity="0.15"/><path d="M1209.634,63.937c0,10.842-4.427,20.068-15.269,20.068s-23.994-9.226-23.994-20.068,4.427-19.194,15.269-19.194S1209.634,53.1,1209.634,63.937Z" transform="translate(-1162.503 -36.874)" fill="#563faf"/></g></g><path d="M180.937,126.061c.158-.932.326-1.924.5-2.917.158-.919.31-1.84.481-2.756a.627.627,0,0,0-.211-.641c-1.3-1.251-2.593-2.518-3.887-3.779-.062-.06-.152-.11-.179-.183-.082-.217-.233-.47-.177-.656a.767.767,0,0,1,.523-.375c.539-.117,1.092-.168,1.639-.246,1.35-.192,2.7-.392,4.051-.571a.5.5,0,0,0,.432-.319c.789-1.623,1.588-3.242,2.383-4.862.038-.077.077-.154.114-.232.117-.246.288-.492.574-.42a.922.922,0,0,1,.536.421q1.262,2.478,2.47,4.985a.717.717,0,0,0,.625.455c1.765.24,3.527.5,5.29.76a2.561,2.561,0,0,1,.434.081.525.525,0,0,1,.287.828,1.91,1.91,0,0,1-.271.3c-1.311,1.279-2.62,2.561-3.941,3.829a.605.605,0,0,0-.2.614c.33,1.849.658,3.7.958,5.552a.925.925,0,0,1-.192.652c-.177.216-.447.121-.678,0-1.662-.876-3.328-1.745-4.986-2.629a.623.623,0,0,0-.672-.006c-1.656.888-3.321,1.758-4.986,2.629C181.352,126.836,180.919,126.618,180.937,126.061Z" transform="translate(31.813 -77.21)" fill="#fff"/></g></svg>