<svg xmlns="http://www.w3.org/2000/svg" width="70.494" height="70.494" viewBox="0 0 70.494 70.494"><g transform="translate(2733.775 2966)"><g transform="translate(-957.838 314.747)"><g transform="matrix(-0.342, 0.94, -0.94, -0.342, -1486.369, -3825.825)"><g transform="translate(604.811 13)"><g transform="translate(0 0)"><path d="M1213.094,59.355c0,15.188-6.2,28.111-21.389,28.111s-33.61-12.924-33.61-28.112,6.2-26.888,21.388-26.888S1213.094,44.168,1213.094,59.355Z" transform="translate(-1158.095 -32.466)" fill="#fefdff" opacity="0.15"/><path d="M1209.634,63.937c0,10.842-4.427,20.068-15.269,20.068s-23.994-9.226-23.994-20.068,4.427-19.194,15.269-19.194S1209.634,53.1,1209.634,63.937Z" transform="translate(-1162.503 -36.874)"/></g></g></g><path d="M622.665,1079.652q0-3.8,0-7.592a1.847,1.847,0,0,1,2.835-1.606q4.347,2.524,8.689,5.054c1.371.8,2.737,1.6,4.112,2.387a2.124,2.124,0,0,1,1.1,1.668,1.841,1.841,0,0,1-.314,1.123,1.985,1.985,0,0,1-.755.722l-10.654,6.2c-.738.43-1.47.872-2.217,1.284a1.782,1.782,0,0,1-2.073-.117,1.809,1.809,0,0,1-.729-1.528Q622.666,1083.447,622.665,1079.652Z" transform="translate(-2370.04 -4325.165)" fill="#fff"/></g></g></svg>