<svg xmlns="http://www.w3.org/2000/svg" width="54.999" height="55" viewBox="0 0 54.999 55"><g transform="translate(-296.811 -13)"><g transform="translate(296.811 13)"><g transform="translate(0 0)"><path d="M1213.094,59.355c0,15.188-6.2,28.111-21.389,28.111s-33.61-12.924-33.61-28.112,6.2-26.888,21.388-26.888S1213.094,44.168,1213.094,59.355Z" transform="translate(-1158.095 -32.466)" fill="#fefdff"/><path d="M1209.634,63.937c0,10.842-4.427,20.068-15.269,20.068s-23.994-9.226-23.994-20.068,4.427-19.194,15.269-19.194S1209.634,53.1,1209.634,63.937Z" transform="translate(-1162.503 -36.874)" fill="#563faf"/></g></g><g transform="translate(291.004 5.523)"><path d="M44.7,34.394a1.52,1.52,0,0,0-.748-1.234L30.286,25.187A1.519,1.519,0,0,0,28,26.5V42.449a1.519,1.519,0,0,0,2.29,1.317l13.667-7.973a1.52,1.52,0,0,0,.748-1.4Zm-4.532.083L31.033,39.8V29.15Z" transform="translate(0)" fill="#fff"/></g></g></svg>