<svg xmlns="http://www.w3.org/2000/svg" width="54.999" height="55" viewBox="0 0 54.999 55"><g transform="translate(-596.811 -13)"><g transform="translate(596.811 13)"><g transform="translate(0 0)"><path d="M1213.094,59.355c0,15.188-6.2,28.111-21.389,28.111s-33.61-12.924-33.61-28.112,6.2-26.888,21.388-26.888S1213.094,44.168,1213.094,59.355Z" transform="translate(-1158.095 -32.466)" fill="#fefdff" opacity="0.15"/><path d="M1209.634,63.937c0,10.842-4.427,20.068-15.269,20.068s-23.994-9.226-23.994-20.068,4.427-19.194,15.269-19.194S1209.634,53.1,1209.634,63.937Z" transform="translate(-1162.503 -36.874)"/></g></g><g transform="translate(602.859 25.183)"><path d="M25.609,20.256h.439a4.609,4.609,0,0,0,4.618-4.6V8.618A4.609,4.609,0,0,0,26.066,4h-.448A4.609,4.609,0,0,0,21,8.6v7.038a4.609,4.609,0,0,0,4.6,4.618ZM22.757,8.609a2.856,2.856,0,0,1,2.851-2.851h.439a2.856,2.856,0,0,1,2.86,2.851h0v7.03a2.856,2.856,0,0,1-2.851,2.86h-.439a2.856,2.856,0,0,1-2.86-2.851h0Z" transform="translate(-4.485 0)" fill="#fff"/><path d="M29.7,28.879a.879.879,0,0,0-1.757,0,6.59,6.59,0,1,1-13.181,0,.879.879,0,1,0-1.757,0,8.348,8.348,0,0,0,7.469,8.3V40.3H17.394a.879.879,0,1,0,0,1.757h8.348a.879.879,0,1,0,0-1.757H22.226V37.178A8.348,8.348,0,0,0,29.7,28.879Z" transform="translate(0 -13.456)" fill="#fff"/></g></g></svg>