<svg xmlns="http://www.w3.org/2000/svg" width="70.494" height="70.494" viewBox="0 0 70.494 70.494"><g transform="translate(1775.937 3280.747)"><g transform="matrix(-0.342, 0.94, -0.94, -0.342, -1486.369, -3825.825)"><g transform="translate(604.811 13)"><g transform="translate(0 0)"><path d="M1213.094,59.355c0,15.188-6.2,28.111-21.389,28.111s-33.61-12.924-33.61-28.112,6.2-26.888,21.388-26.888S1213.094,44.168,1213.094,59.355Z" transform="translate(-1158.095 -32.466)" fill="#fefdff" opacity="0.15"/><path d="M1209.634,63.937c0,10.842-4.427,20.068-15.269,20.068s-23.994-9.226-23.994-20.068,4.427-19.194,15.269-19.194S1209.634,53.1,1209.634,63.937Z" transform="translate(-1162.503 -36.874)"/></g></g></g><rect width="5" height="19" rx="2.5" transform="translate(-1748 -3255)" fill="#fff"/><rect width="5" height="19" rx="2.5" transform="translate(-1738 -3255)" fill="#fff"/></g></svg>