<svg xmlns="http://www.w3.org/2000/svg" width="54.999" height="55" viewBox="0 0 54.999 55">
  <g id="button-cast" transform="translate(1790 1013)">
    <g id="Grupo_156" data-name="Grupo 156" transform="translate(-1790 -1013)">
      <g id="Grupo_126" data-name="Grupo 126" transform="translate(0 0)">
        <path id="Trazado_103" data-name="Trazado 103" d="M1213.094,59.355c0,15.188-6.2,28.111-21.389,28.111s-33.61-12.924-33.61-28.112,6.2-26.888,21.388-26.888S1213.094,44.168,1213.094,59.355Z" transform="translate(-1158.095 -32.466)" fill="#fefdff" opacity="0.15"/>
        <path id="Trazado_104" data-name="Trazado 104" d="M1209.634,63.937c0,10.842-4.427,20.068-15.269,20.068s-23.994-9.226-23.994-20.068,4.427-19.194,15.269-19.194S1209.634,53.1,1209.634,63.937Z" transform="translate(-1162.503 -36.874)"/>
      </g>
    </g>
    <path id="Icon_material-cast" data-name="Icon material-cast" d="M19.592,4.5H3.309A1.815,1.815,0,0,0,1.5,6.309V9.023H3.309V6.309H19.592V18.974H13.26v1.809h6.332A1.815,1.815,0,0,0,21.4,18.974V6.309A1.815,1.815,0,0,0,19.592,4.5ZM1.5,18.069v2.714H4.214A2.71,2.71,0,0,0,1.5,18.069Zm0-3.618V16.26a4.525,4.525,0,0,1,4.523,4.523H7.832A6.328,6.328,0,0,0,1.5,14.451Zm0-3.618v1.809a8.142,8.142,0,0,1,8.141,8.141h1.809A9.951,9.951,0,0,0,1.5,10.832Z" transform="translate(-1773.95 -998.141)" fill="#fff"/>
  </g>
</svg>
