<svg xmlns="http://www.w3.org/2000/svg" width="54.999" height="55" viewBox="0 0 54.999 55">
  <g id="button-cast-active" transform="translate(1726 1013)">
    <g id="Grupo_126" data-name="Grupo 126" transform="translate(-1726 -1013)">
      <path id="Trazado_103" data-name="Trazado 103" d="M1213.094,59.355c0,15.188-6.2,28.111-21.389,28.111s-33.61-12.924-33.61-28.112,6.2-26.888,21.388-26.888S1213.094,44.168,1213.094,59.355Z" transform="translate(-1158.095 -32.466)" fill="#fefdff"/>
      <path id="Trazado_104" data-name="Trazado 104" d="M1209.634,63.937c0,10.842-4.427,20.068-15.269,20.068s-23.994-9.226-23.994-20.068,4.427-19.194,15.269-19.194S1209.634,53.1,1209.634,63.937Z" transform="translate(-1162.503 -36.874)"/>
    </g>
    <path id="Icon_material-cast-connected" data-name="Icon material-cast-connected" d="M1.5,18.176v2.735H4.235A2.731,2.731,0,0,0,1.5,18.176Zm0-3.647v1.823a4.56,4.56,0,0,1,4.559,4.559H7.882A6.377,6.377,0,0,0,1.5,14.529ZM17.911,8.147H5.147V9.633a11.883,11.883,0,0,1,7.631,7.631h5.133ZM1.5,10.882v1.823a8.206,8.206,0,0,1,8.205,8.205h1.823A10.029,10.029,0,0,0,1.5,10.882ZM19.734,4.5H3.323A1.829,1.829,0,0,0,1.5,6.323V9.059H3.323V6.323H19.734V19.087H13.352v1.823h6.382a1.829,1.829,0,0,0,1.823-1.823V6.323A1.829,1.829,0,0,0,19.734,4.5Z" transform="translate(-1710.126 -998.141)" fill="#fff"/>
  </g>
</svg>
