<svg xmlns="http://www.w3.org/2000/svg" width="54.999" height="55" viewBox="0 0 54.999 55"><g transform="translate(-665.811 -13)"><g transform="translate(665.811 13)"><g transform="translate(0 0)"><path d="M1213.094,59.355c0,15.188-6.2,28.111-21.389,28.111s-33.61-12.924-33.61-28.112,6.2-26.888,21.388-26.888S1213.094,44.168,1213.094,59.355Z" transform="translate(-1158.095 -32.466)" fill="#fefdff" opacity="0.15"/><path d="M1209.634,63.937c0,10.842-4.427,20.068-15.269,20.068s-23.994-9.226-23.994-20.068,4.427-19.194,15.269-19.194S1209.634,53.1,1209.634,63.937Z" transform="translate(-1162.503 -36.874)"/></g></g><g transform="translate(683.722 30.946)"><path d="M1116.7,72.449a8.205,8.205,0,1,1,1.884-1.883,1.537,1.537,0,0,1,.177.133q1.846,1.841,3.691,3.684a1.383,1.383,0,0,1,.419,1.475,1.357,1.357,0,0,1-2.15.638c-.09-.076-.177-.156-.261-.24q-1.814-1.814-3.626-3.63A1.489,1.489,0,0,1,1116.7,72.449Zm-10.252-6.671a5.463,5.463,0,1,0,5.463-5.464A5.465,5.465,0,0,0,1106.447,65.778Z" transform="translate(-1103.708 -57.574)" fill="#fff"/></g></g></svg>