<svg xmlns="http://www.w3.org/2000/svg" width="54.999" height="55" viewBox="0 0 54.999 55"><g transform="translate(-604.811 -13)"><g transform="translate(604.811 13)"><g transform="translate(0 0)"><path d="M1213.094,59.355c0,15.188-6.2,28.111-21.389,28.111s-33.61-12.924-33.61-28.112,6.2-26.888,21.388-26.888S1213.094,44.168,1213.094,59.355Z" transform="translate(-1158.095 -32.466)" fill="#fefdff" opacity="0.15"/><path d="M1209.634,63.937c0,10.842-4.427,20.068-15.269,20.068s-23.994-9.226-23.994-20.068,4.427-19.194,15.269-19.194S1209.634,53.1,1209.634,63.937Z" transform="translate(-1162.503 -36.874)"/></g></g><path d="M36.269,57.978h.411q6.991,0,13.981,0a1.682,1.682,0,0,1,1.535.649,1.946,1.946,0,0,1,.136,2.022,1.644,1.644,0,0,1-1.66.91q-6.971-.01-13.943,0H36.2c.137.152.221.252.313.345,1.18,1.2,2.365,2.4,3.539,3.606a1.762,1.762,0,1,1-2.31,2.66c-1.01-.921-1.965-1.9-2.94-2.861q-2.044-2.012-4.082-4.031a1.96,1.96,0,0,1-.016-3.009q3.389-3.354,6.78-6.705a3.318,3.318,0,0,1,.546-.467,1.687,1.687,0,0,1,2.171.332,1.638,1.638,0,0,1,.092,2.276c-1.188,1.281-2.419,2.522-3.638,3.773a4.418,4.418,0,0,1-.476.374Z" transform="translate(591.22 -19.341)" fill="#fff"/></g></svg>